<svg xmlns="http://www.w3.org/2000/svg" viewBox="0 0 125.19 50"><defs><style>.cls-1{fill-rule:evenodd;}</style></defs><title>chloe_logo</title><g id="Layer_2" data-name="Layer 2"><g id="Layer_1-2" data-name="Layer 1"><path class="cls-1" d="M0,49.65H1.3V43.49a7.64,7.64,0,0,0,.83,1L7.75,50V40.78H6.45v6.15a10.43,10.43,0,0,0-.94-1.07L0,40.44v9.21Zm13.41,0h4.84V48.36H14.82V45.5h3.43V44.23H14.82V42h3.43V40.78H13.41v8.87ZM24,40.78,27.31,50l1.94-5q.24-.62.42-1.26c.11.38.25.8.42,1.24l2,5.06,3.36-9.22H34L32.4,45.3A11.64,11.64,0,0,0,32,46.67a14.64,14.64,0,0,0-.46-1.41l-1.83-4.82-1.75,4.73c-.05.15-.22.64-.47,1.49-.13-.47-.29-.93-.46-1.4l-1.64-4.48Zm23.09,8.87h1.39v-4l3-4.82H50l-1.87,3a4.64,4.64,0,0,0-.36.74c-.2-.41-.33-.64-.37-.7l-1.82-3H44.12l2.93,4.82v4Zm18.41-4.41a4.64,4.64,0,1,0-9.27,0,4.52,4.52,0,0,0,1.35,3.28,4.61,4.61,0,0,0,6.56,0,4.52,4.52,0,0,0,1.36-3.28Zm-1.47,0a3.36,3.36,0,0,1-.93,2.34,3.07,3.07,0,0,1-4.48,0,3.46,3.46,0,0,1,0-4.7,3.11,3.11,0,0,1,2.25-1,3.07,3.07,0,0,1,2.23,1A3.39,3.39,0,0,1,64,45.24Zm8.56.44h.16l2.89,4h1.59l-3-4a2.12,2.12,0,0,0,2-2.39,2.45,2.45,0,0,0-.83-1.95,3.36,3.36,0,0,0-2.16-.5h-2v8.87h1.32v-4Zm.09-1.11V42h.25c1.27,0,1.86.24,1.86,1.33s-.62,1.22-1.86,1.22Zm9.79,5.08h1.4V45.12l3.44,4.53h1.82l-3.85-4.92,3.43-3.95H87l-3.12,3.67V40.78h-1.4v8.87Zm11.31,0h2.2c1.21,0,2,0,2.65-.67a2.65,2.65,0,0,0,.71-1.85A2,2,0,0,0,97.67,45a1.77,1.77,0,0,0,1.25-1.85,2.27,2.27,0,0,0-.85-1.87,3.37,3.37,0,0,0-2.14-.45H93.74v8.87Zm1.38-1.2V45.62H96a2.31,2.31,0,0,1,1.14.2,1.3,1.3,0,0,1,.67,1.23,1.32,1.32,0,0,1-.54,1.12,3.11,3.11,0,0,1-1.69.28Zm0-3.92V42h.54c1.25,0,1.84.21,1.84,1.31,0,.93-.57,1.23-1.84,1.23Zm15.74,5.12h1.49l-4.2-9.21L104,49.65h1.48l1-2.28h3.43l1,2.28ZM107,46.17l.89-2a7.76,7.76,0,0,0,.31-1,7.24,7.24,0,0,0,.33,1l.89,2Zm10.48,3.48h1.3V43.49a7,7,0,0,0,.84,1L125.19,50V40.78h-1.3v6.15a10.43,10.43,0,0,0-.94-1.07l-5.51-5.42Z"/><path class="cls-1" d="M93.16,19a.51.51,0,0,1-.28-.06.41.41,0,0,1-.09-.27c0-.13.46-.52,1.4-1.17a9.43,9.43,0,0,0,2.32-2.26,10.23,10.23,0,0,0,.86-1.82c.57-1.42,1.2-2.13,1.91-2.13a1.25,1.25,0,0,1,1.35,1.35A3.78,3.78,0,0,1,99.55,15a11.82,11.82,0,0,1-3.09,2.42c-1.1.65-1.87,1.07-2.3,1.27a2.68,2.68,0,0,1-1,.28Zm-4.5,8.35a11.24,11.24,0,0,0,5.21-2.61c1.44-1.3,2.17-2.52,2.17-3.66a.94.94,0,0,0-.24-.64.73.73,0,0,0-.56-.26c-1,0-2.15.69-3.48,2.08a14.47,14.47,0,0,0-3.1,5.09ZM72.77,30.31a1.84,1.84,0,0,0,.34,1.21,1.34,1.34,0,0,0,1.06.41,4,4,0,0,0,1.94-.75,12.66,12.66,0,0,0,2.34-1.95,13.87,13.87,0,0,0,2.35-3.39,7.54,7.54,0,0,0,.86-3.23,2.74,2.74,0,0,0-.45-1.67,1.51,1.51,0,0,0-1.28-.62,3.58,3.58,0,0,0-2.17.92A13.39,13.39,0,0,0,75.3,24a16.07,16.07,0,0,0-1.86,3.39,8,8,0,0,0-.67,2.92Zm-20-12.8C58.18,11.77,65.11,2.83,63.78,2.73,61.36,2.53,54,15.24,52.72,17.51ZM80.81,2.73c1.37.09-5.33,9.22-10.93,14.92.93-1.53,7.94-15.13,10.93-14.92ZM41.22,32.49,44,32.17a99.25,99.25,0,0,1,7.43-8.65c2.13-2.13,3.53-3.2,4.23-3.2a.49.49,0,0,1,.36.12.76.76,0,0,1,.15.44A5.23,5.23,0,0,1,54.85,23c-.3.36-.53.64-.69.85a21.14,21.14,0,0,0-2.36,3.41,5,5,0,0,0-.55,2.16,4.07,4.07,0,0,0,.6,2.33,1.82,1.82,0,0,0,1.57.89,3.78,3.78,0,0,0,1.93-.94,30.14,30.14,0,0,0,3.15-2.87c2-2.06,3.87-4.1,5.72-6.36l-.36.57Q60.59,28,60.59,29.8a3,3,0,0,0,.67,2.08,2.25,2.25,0,0,0,1.79.78,3.82,3.82,0,0,0,2.08-.81,27.15,27.15,0,0,0,3.46-3.14c.88-.9,1.72-1.82,2.51-2.77A10.55,10.55,0,0,0,70.87,27a5.39,5.39,0,0,0-.09.93,6.51,6.51,0,0,0,.78,3.5,2.54,2.54,0,0,0,2.26,1.22,5.61,5.61,0,0,0,2.82-.95A15.66,15.66,0,0,0,79.82,29l.41,0a5.26,5.26,0,0,0,.61,0,5.39,5.39,0,0,0,2.49-.61,8.6,8.6,0,0,0,2.87-2.6,9.65,9.65,0,0,0-.2,1,7.4,7.4,0,0,0-.07.92A5.57,5.57,0,0,0,87,31.28a3.36,3.36,0,0,0,2.77,1.38,5.87,5.87,0,0,0,2.9-.86,17.82,17.82,0,0,0,3.5-2.86c1-1,1.6-1.67,1.88-2a1.63,1.63,0,0,0,.43-.71.21.21,0,0,0-.08-.16.29.29,0,0,0-.19-.06c-.12,0-.46.31-1,1s-1.1,1.21-1.61,1.71a16.54,16.54,0,0,1-3.12,2.56A4.89,4.89,0,0,1,90,32a1.66,1.66,0,0,1-1.34-.55,2.28,2.28,0,0,1-.48-1.55,5.45,5.45,0,0,1,0-.62c0-.25.09-.65.17-1.19a18.77,18.77,0,0,0,6.65-2.71c1.66-1.17,2.48-2.38,2.48-3.63a1.84,1.84,0,0,0-.69-1.51A2.61,2.61,0,0,0,95,19.64,8.26,8.26,0,0,0,91,20.85a17.76,17.76,0,0,0-4.22,3.5c-1.17,1.27-2.17,2.75-3.73,3.57a4,4,0,0,1-1.89.53,2.22,2.22,0,0,1-.54-.09l-.19,0a15.9,15.9,0,0,0,1.89-3,6.09,6.09,0,0,0,.59-2.48,3.34,3.34,0,0,0-.84-2.4,3,3,0,0,0-2.29-.89,7.63,7.63,0,0,0-3.83,1.26,18.86,18.86,0,0,0-4.15,3.46c-1.13,1.27-2.24,2.54-3.45,3.81a26.34,26.34,0,0,1-3.6,3.27,3.46,3.46,0,0,1-1.86.7.72.72,0,0,1-.58-.26.82.82,0,0,1-.23-.6A3,3,0,0,1,62.43,30c.26-.52.9-1.52,1.83-3.06l4.56-7.5c7.36-7.25,16-18.33,12.81-18.33C75.91,1.07,68.35,15.94,66.35,19c-.21.32-.71.9-1.45,1.76-2.13,2.45-4.26,5-6.53,7.34A32.07,32.07,0,0,1,55.31,31a3.78,3.78,0,0,1-1.84,1,.67.67,0,0,1-.56-.21.93.93,0,0,1-.17-.6,3,3,0,0,1,.43-1.33,26.61,26.61,0,0,1,1.65-2.49l.56-.77c1.5-2,2.26-3.63,2.26-4.76a2.64,2.64,0,0,0-.47-1.62,1.45,1.45,0,0,0-1.24-.62,5.09,5.09,0,0,0-2.82,1.47,64.55,64.55,0,0,0-5.49,5.57l4.21-7.53C59,11.83,67.71,1,64.6,1.07c-4.71.09-10.89,10.84-12.9,14a52.57,52.57,0,0,1-5.63,8c-4,4.29-6.77,8.18-13.71,9A4.42,4.42,0,0,1,29,30.51a6.45,6.45,0,0,1-1.1-4.05,23.5,23.5,0,0,1,2.24-9.33,30.2,30.2,0,0,1,10.21-12l.57-.41a31.32,31.32,0,0,1,5.74-3,13.49,13.49,0,0,1,4.7-1,3.06,3.06,0,0,1,2.07.65,2.37,2.37,0,0,1,.74,1.85c0,1.4-.81,3-2.44,4.79l.1.46q3-2.83,3-5.34A2.81,2.81,0,0,0,53.9.79,3.91,3.91,0,0,0,51.28,0C44.94,0,37.52,4.71,33.06,8.75a35.06,35.06,0,0,0-5.19,5.9,21.76,21.76,0,0,0-2.27,4.49,17.26,17.26,0,0,0-1,5.64,8.51,8.51,0,0,0,2,5.81,6.32,6.32,0,0,0,5,2.25l1.69,0a16.15,16.15,0,0,0,8.64-4.37c2.21-2.15,3.65-3.71,5.76-6.13Z"/></g></g></svg>