<svg xmlns="http://www.w3.org/2000/svg" viewBox="0 0 14.3 20"><title>foursq</title><g id="Layer_2" data-name="Layer 2"><g id="Layer_1-2" data-name="Layer 1"><path d="M13.78.77A2.2,2.2,0,0,0,12.1,0H2.2A2.21,2.21,0,0,0,0,2.2V19a1,1,0,0,0,.65.94A.92.92,0,0,0,1,20a1,1,0,0,0,.75-.34l5.31-6h3.57a2.19,2.19,0,0,0,2.17-1.85l1.47-9.28A2.2,2.2,0,0,0,13.78.77ZM11.32,5.62H6.61a1,1,0,0,0-1,1,1,1,0,0,0,1,1h4.25a.51.51,0,0,1,.5.58l-.48,3a.5.5,0,0,1-.49.42H6.62a1,1,0,0,0-.75.34L2,16.34V2.2A.2.2,0,0,1,2.2,2h9.49a.51.51,0,0,1,.5.58l-.38,2.6A.5.5,0,0,1,11.32,5.62Z"/></g></g></svg>