<svg xmlns="http://www.w3.org/2000/svg" viewBox="0 0 20 11.85"><defs><style>.cls-1{fill-rule:evenodd;}</style></defs><title>tripadvisor</title><g id="Layer_2" data-name="Layer 2"><g id="Layer_1-2" data-name="Layer 1"><path class="cls-1" d="M12.26.19A9.5,9.5,0,0,1,13.9.57a11.1,11.1,0,0,1,2.67,1.22.51.51,0,0,0,.2.06H20v0l-.14.22A6.15,6.15,0,0,0,19,3.74a.22.22,0,0,0,0,.18A4.86,4.86,0,0,1,19.84,8a4.86,4.86,0,0,1-2.2,3.05,4.93,4.93,0,0,1-2.67.76,4.79,4.79,0,0,1-1.19-.15,5.07,5.07,0,0,1-2.46-1.45c-.09-.1-.17-.2-.27-.3L10,11.54c-.36-.53-.71-1-1.05-1.57l0,0,0,0a5,5,0,0,1-3.1,1.76,4.82,4.82,0,0,1-2.07-.12A5,5,0,0,1,.07,7.59a4.55,4.55,0,0,1,.09-2,4.87,4.87,0,0,1,.78-1.7.22.22,0,0,0,0-.14,5.47,5.47,0,0,0-.7-1.51L0,1.91v0H3.07a.2.2,0,0,0,.13,0A11.13,11.13,0,0,1,5.45.74,11.57,11.57,0,0,1,7.2.27,12.55,12.55,0,0,1,8.94,0a14.48,14.48,0,0,1,3.32.15ZM11,6.83a4,4,0,1,0,3.9-4,4,4,0,0,0-3.9,4Zm-6-4a4,4,0,1,0,4,4,4,4,0,0,0-4-4Zm.2-1A5.09,5.09,0,0,1,10,6.15a5.06,5.06,0,0,1,4.72-4.33A11.34,11.34,0,0,0,10.27.89a12.36,12.36,0,0,0-5.06.9Z"/><path class="cls-1" d="M15,4.31A2.47,2.47,0,1,1,12.5,6.78,2.46,2.46,0,0,1,15,4.31Zm1.61,2.47A1.62,1.62,0,1,0,15,8.39a1.62,1.62,0,0,0,1.62-1.61Z"/><path class="cls-1" d="M5,4.31A2.47,2.47,0,1,1,2.47,6.78,2.45,2.45,0,0,1,5,4.31ZM6.57,6.77A1.62,1.62,0,1,0,5,8.39,1.63,1.63,0,0,0,6.57,6.77Z"/><path class="cls-1" d="M15,6a.82.82,0,1,1-.82.83A.81.81,0,0,1,15,6Z"/><path class="cls-1" d="M5,6A.83.83,0,1,1,5,7.6.83.83,0,1,1,5,6Z"/></g></g></svg>